<svg xmlns="http://www.w3.org/2000/svg" viewBox="0 0 99 27.81"><title>-isux-logo</title><g id="图层_2" data-name="图层 2"><g id="navi_footer" data-name="navi &amp; footer"><g id="导航"><g id="logo"><path d="M1.8,1.8a6.15,6.15,0,0,0,0,8.69l2.41,2.4h5L8,11.73H8L4.28,8A2.63,2.63,0,0,1,8,4.28L12.9,9.18v-5L10.49,1.8a6.15,6.15,0,0,0-8.69,0"/><path d="M23.54,4.28a2.64,2.64,0,0,1,0,3.73l-3.72,3.72h0L18.64,12.9h5l2.4-2.4A6.15,6.15,0,0,0,17.33,1.8L14.92,4.21v5l4.89-4.89a2.64,2.64,0,0,1,3.73,0"/><path d="M23.62,14.91h-5l1.17,1.17h0l3.72,3.72a2.63,2.63,0,0,1-3.73,3.73l-4.89-4.89v5L17.33,26A6.15,6.15,0,0,0,26,17.32Z"/><path d="M4.28,23.53a2.64,2.64,0,0,1,0-3.73L8,16.08H8l1.17-1.17h-5L1.8,17.32A6.15,6.15,0,0,0,10.49,26L12.9,23.6v-5L8,23.53a2.64,2.64,0,0,1-3.73,0"/><rect x="36.74" y="6.48" width="2.25" height="14.84"/><path d="M48.43,20.65l.82-1.86a6.81,6.81,0,0,0,3.25,1,3.26,3.26,0,0,0,2.12-.65,2,2,0,0,0,.8-1.65A2.41,2.41,0,0,0,55,16.06a5.43,5.43,0,0,0-2.23-1.4l-1.33-.56a5.23,5.23,0,0,1-2.36-1.68,4,4,0,0,1-.67-2.34,3.45,3.45,0,0,1,1.31-2.76A5.05,5.05,0,0,1,53,6.23a6.63,6.63,0,0,1,3.81.8l-.66,1.76a5.48,5.48,0,0,0-1.37-.57A6.06,6.06,0,0,0,53.1,8a2.62,2.62,0,0,0-1.81.59,1.93,1.93,0,0,0-.66,1.51,2.26,2.26,0,0,0,.24,1,2.19,2.19,0,0,0,.66.78,10.21,10.21,0,0,0,1.73.88l1.35.58A5.28,5.28,0,0,1,57,15a4.4,4.4,0,0,1,.68,2.54,3.49,3.49,0,0,1-1.49,2.84,6.31,6.31,0,0,1-4,1.17,7.16,7.16,0,0,1-3.75-.93"/><path d="M66.27,6.48h2.25V16.65a2.89,2.89,0,0,0,1,2.23,3.6,3.6,0,0,0,2.53.88,3.81,3.81,0,0,0,2.62-.85,2.94,2.94,0,0,0,1-2.31V6.48h2.25V16.81a4.27,4.27,0,0,1-1.56,3.51A6.56,6.56,0,0,1,72,21.58a6.53,6.53,0,0,1-4.27-1.24,4.34,4.34,0,0,1-1.5-3.55Z"/><polygon points="96.61 21.33 92.52 15.37 88.73 21.33 86.46 21.33 91.32 13.63 86.85 6.47 89.07 6.48 92.59 12.1 96.48 6.48 98.74 6.48 93.62 13.67 99 21.33 96.61 21.33"/></g></g></g></g></svg>